# xmcd
#
# Track frame offsets: 
#        150
#        12015
#        24425
#        41959
#        60693
#        81199
#        96196
#        108822
#        134812
#        150274
#        167599
#        177412
#        191167
#        217742
#        233645
#        246942
#        255922
#        273790
#        290013
#        308269
#        325311
#        347301
#
# Disc length: 4785 seconds
#
# Revision: 1
# Processed by: cddbd v1.5.2PL0 Copyright (c) Steve Scherf et al.
# Submitted via: ExactAudioCopy v1.3
#
DISCID=2012af16
DTITLE=Howling Wolf - Akella Presents - Greatest Bluesmen - vol. 03  C
DTITLE=D1
DYEAR=2017
DGENRE=Blues
TTITLE0=My Country Sugar Mama
TTITLE1=Louise
TTITLE2=Crying At Daybreak (Crying At Daylight)
TTITLE3=House Rockin' Boogie
TTITLE4=Turn Me On
TTITLE5=Romance Without Finance
TTITLE6=She's Looking Good
TTITLE7=Message To The Young
TTITLE8=Miss James
TTITLE9=Sittin' On Top Of The World
TTITLE10=Built For Comfort
TTITLE11=What A Woman!
TTITLE12=Goin' Down Slow
TTITLE13=I Ain't Superstitious
TTITLE14=Worried About My Baby
TTITLE15=The Red Rooster (false start and dialogue)
TTITLE16=The Red Rooster
TTITLE17=Trying To Forget You
TTITLE18=The Back Door Wolf
TTITLE19=Coon On The Moon
TTITLE20=Speak Now Woman
TTITLE21=Can't Stay Here
EXTD=
EXTT0=
EXTT1=
EXTT2=
EXTT3=
EXTT4=
EXTT5=
EXTT6=
EXTT7=
EXTT8=
EXTT9=
EXTT10=
EXTT11=
EXTT12=
EXTT13=
EXTT14=
EXTT15=
EXTT16=
EXTT17=
EXTT18=
EXTT19=
EXTT20=
EXTT21=
PLAYORDER=
